HIERARCHY
ROOT Hip
{
	OFFSET	0.00  0.00  0.00 
	CHANNELS 6 Xposition Yposition Zposition Xrotation Zrotation Yrotation
	JOINT Abdomen
	{
		OFFSET	0.039181 5.637571 0.560720
		CHANNELS 3 Xrotation Zrotation Yrotation
		JOINT Chest
		{
			OFFSET	-0.136063 7.190207 -0.124363
			CHANNELS 3 Xrotation Zrotation Yrotation
			JOINT Neck
			{
				OFFSET	0.193764 10.560151 -1.259468
				CHANNELS 3 Xrotation Zrotation Yrotation
				JOINT Head
				{
					OFFSET	-0.096882 0.362727 0.622109
					CHANNELS 3 Xrotation Zrotation Yrotation
					JOINT LeftEye
					{
						OFFSET	1.356350 5.062673 4.221998
						CHANNELS 3 Zrotation Yrotation Xrotation
						End Site
						{
							OFFSET 0.000000 0.000000 0.871939
						}
					}
					JOINT RightEye
					{
						OFFSET	-1.356350 5.062673 4.221998
						CHANNELS 3 Zrotation Yrotation Xrotation
						End Site
						{
							OFFSET 0.000000 0.000000 0.871939
						}
					}
				}
			}
			JOINT RightCollar
			{
				OFFSET	-3.778404 4.940989 0.193764
				CHANNELS 3 Yrotation Zrotation Xrotation
				JOINT RightShoulder
				{
					OFFSET	-2.615818 1.356350 -0.484411
					CHANNELS 3 Zrotation Yrotation Xrotation
					JOINT RightForearm
					{
						OFFSET	-11.432094 0.484410 -1.937643
						CHANNELS 3 Yrotation Zrotation Xrotation
						JOINT RightHand
						{
							OFFSET	-10.657035 -0.096881 0.581293
							CHANNELS 3 Zrotation Yrotation Xrotation
							JOINT RightThumb1
							{
								OFFSET	-0.678175 -0.581297 0.968821
								CHANNELS 3 Zrotation Yrotation Xrotation
								JOINT RightThumb2
								{
									OFFSET	-0.968823 -0.484410 0.484411
									CHANNELS 3 Zrotation Yrotation Xrotation
									JOINT RightThumb3
									{
										OFFSET	-0.929680 -0.497680 0.055639
										CHANNELS 3 Zrotation Yrotation Xrotation
										End Site
										{
											OFFSET -1.097190 -0.513867 -0.001182
										}
									}
								}
							}
							JOINT RightIndex1
							{
								OFFSET	-3.003348 0.581291 1.259468
								CHANNELS 3 Zrotation Yrotation Xrotation
								JOINT RightIndex2
								{
									OFFSET	-1.468153 -0.266718 0.069755
									CHANNELS 3 Zrotation Yrotation Xrotation
									JOINT RightIndex3
									{
										OFFSET	-0.944212 -0.382684 -0.083028
										CHANNELS 3 Zrotation Yrotation Xrotation
										End Site
										{
											OFFSET -0.675657 -0.558718 0.000000
										}
									}
								}
							}
							JOINT RightMid1
							{
								OFFSET	-3.197113 0.581291 0.290646
								CHANNELS 3 Zrotation Yrotation Xrotation
								JOINT RightMid2
								{
									OFFSET	-1.550115 -0.387529 0.000000
									CHANNELS 3 Zrotation Yrotation Xrotation
									JOINT RightMid3
									{
										OFFSET	-0.731071 -0.803926 0.018214
										CHANNELS 3 Zrotation Yrotation Xrotation
										End Site
										{
											OFFSET -0.366992 -0.937043 0.083406
										}
									}
								}
							}
							JOINT RightRing1
							{
								OFFSET	-3.197113 0.387529 -0.678175
								CHANNELS 3 Zrotation Yrotation Xrotation
								JOINT RightRing2
								{
									OFFSET	-1.259466 -0.484410 0.096882
									CHANNELS 3 Zrotation Yrotation Xrotation
									JOINT RightRing3
									{
										OFFSET	-0.551552 -0.801218 0.111221
										CHANNELS 3 Zrotation Yrotation Xrotation
										End Site
										{
											OFFSET -0.245208 -0.810324 0.000000
										}
									}
								}
							}
							JOINT RightPinky1
							{
								OFFSET	-2.809584 -0.096881 -1.453232
								CHANNELS 3 Zrotation Yrotation Xrotation
								JOINT RightPinky2
								{
									OFFSET	-0.984323 -0.316034 0.039140
									CHANNELS 3 Zrotation Yrotation Xrotation
									JOINT RightPinky3
									{
										OFFSET	-0.468908 -0.555906 0.057742
										CHANNELS 3 Zrotation Yrotation Xrotation
										End Site
										{
											OFFSET -0.479664 -0.640198 0.044081
										}
									}
								}
							}
						}
					}
				}
			}
			JOINT LeftCollar
			{
				OFFSET	3.972168 4.940989 0.193764
				CHANNELS 3 Yrotation Zrotation Xrotation
				JOINT LeftShoulder
				{
					OFFSET	2.615818 1.356350 -0.484411
					CHANNELS 3 Zrotation Yrotation Xrotation
					JOINT LeftForearm
					{
						OFFSET	11.432094 0.484410 -1.937643
						CHANNELS 3 Yrotation Zrotation Xrotation
						JOINT LeftHand
						{
							OFFSET	10.657035 -0.096881 0.581293
							CHANNELS 3 Zrotation Yrotation Xrotation
							JOINT LeftThumb1
							{
								OFFSET	0.678175 -0.581297 0.968821
								CHANNELS 3 Zrotation Yrotation Xrotation
								JOINT LeftThumb2
								{
									OFFSET	0.968823 -0.484410 0.484411
									CHANNELS 3 Zrotation Yrotation Xrotation
									JOINT LeftThumb3
									{
										OFFSET	0.929680 -0.497680 0.055639
										CHANNELS 3 Zrotation Yrotation Xrotation
										End Site
										{
											OFFSET 1.097190 -0.513867 -0.001182
										}
									}
								}
							}
							JOINT LeftIndex1
							{
								OFFSET	3.003348 0.581291 1.259468
								CHANNELS 3 Zrotation Yrotation Xrotation
								JOINT LeftIndex2
								{
									OFFSET	1.468153 -0.266718 0.069755
									CHANNELS 3 Zrotation Yrotation Xrotation
									JOINT LeftIndex3
									{
										OFFSET	0.944212 -0.382684 -0.083028
										CHANNELS 3 Zrotation Yrotation Xrotation
										End Site
										{
											OFFSET 0.675657 -0.558718 0.000000
										}
									}
								}
							}
							JOINT LeftMid1
							{
								OFFSET	3.197113 0.581291 0.290646
								CHANNELS 3 Zrotation Yrotation Xrotation
								JOINT LeftMid2
								{
									OFFSET	1.550115 -0.387529 0.000000
									CHANNELS 3 Zrotation Yrotation Xrotation
									JOINT LeftMid3
									{
										OFFSET	0.731071 -0.803926 0.018214
										CHANNELS 3 Zrotation Yrotation Xrotation
										End Site
										{
											OFFSET 0.366992 -0.937043 0.083406
										}
									}
								}
							}
							JOINT LeftRing1
							{
								OFFSET	3.197113 0.387529 -0.678175
								CHANNELS 3 Zrotation Yrotation Xrotation
								JOINT LeftRing2
								{
									OFFSET	1.259466 -0.484410 0.096882
									CHANNELS 3 Zrotation Yrotation Xrotation
									JOINT LeftRing3
									{
										OFFSET	0.551552 -0.801218 0.111221
										CHANNELS 3 Zrotation Yrotation Xrotation
										End Site
										{
											OFFSET 0.245208 -0.810324 0.000000
										}
									}
								}
							}
							JOINT LeftPinky1
							{
								OFFSET	2.809584 -0.096881 -1.453232
								CHANNELS 3 Zrotation Yrotation Xrotation
								JOINT LeftPinky2
								{
									OFFSET	0.984323 -0.316034 0.039140
									CHANNELS 3 Zrotation Yrotation Xrotation
									JOINT LeftPinky3
									{
										OFFSET	0.468908 -0.555906 0.057742
										CHANNELS 3 Zrotation Yrotation Xrotation
										End Site
										{
											OFFSET 0.479664 -0.640198 0.044081
										}
									}
								}
							}
						}
					}
				}
			}
		}
	}
	JOINT RightThigh
	{
		OFFSET	-3.875286 0.717509 0.339475
		CHANNELS 3 Xrotation Zrotation Yrotation
		JOINT RightShin
		{
			OFFSET	-0.434323 -20.673391 0.003424
			CHANNELS 3 Xrotation Zrotation Yrotation
			JOINT RightFoot
			{
				OFFSET	-0.063555 -15.653578 -0.075717
				CHANNELS 3 Xrotation Yrotation Zrotation
				JOINT RightToe
				{
					OFFSET	-0.513669 -2.790361 5.061637
					CHANNELS 3 Xrotation Yrotation Zrotation
					End Site
					{
						OFFSET 0.000000 -0.280183 2.993164
					}
				}
			}
		}
	}
	JOINT LeftThigh
	{
		OFFSET	3.875286 0.717509 0.339475
		CHANNELS 3 Xrotation Zrotation Yrotation
		JOINT LeftShin
		{
			OFFSET	0.434323 -20.673391 0.003424
			CHANNELS 3 Xrotation Zrotation Yrotation
			JOINT LeftFoot
			{
				OFFSET	0.063555 -15.653578 -0.075717
				CHANNELS 3 Xrotation Yrotation Zrotation
				JOINT LeftToe
				{
					OFFSET	0.513669 -2.874842 4.946725
					CHANNELS 3 Xrotation Yrotation Zrotation
					End Site
					{
						OFFSET 0.000000 -0.195702 3.108076
					}
				}
			}
		}
	}
}
MOTION
Frames:     4
Frame Time: 0.033333
-47.183640 42.047161 57.755905 2.109620 0.878315 -47.601501 0.175782 -0.175781 4.920770 11.290600 4.827090 5.719950 0.000000 0.000000 0.000000 -24.270000 -9.633010 -1.488030 0.000000 0.000000 0.000000 0.000000 0.000000 0.000000 -6.635780 -22.027901 -0.680953 90.317032 -1.744421 9.222214 45.875492 0.071281 -0.628623 -7.266620 -16.435604 2.615775 -2.196803 8.088476 9.363434 -5.993100 8.200828 -17.027071 -2.735254 11.533928 -17.444088 31.970200 18.932699 5.881620 -8.737162 9.822696 -5.878980 21.234838 3.416048 -6.315852 34.696049 23.527008 15.577812 8.244953 -1.502700 0.722675 -12.838020 -2.429856 5.230082 35.942455 25.760197 18.217253 -0.156757 -5.465929 4.370303 -17.719269 -3.972915 -0.926374 34.889076 26.244684 16.543980 7.752715 -4.393883 3.036627 4.441531 -3.901016 1.855662 3.456840 14.976900 0.146929 -93.266014 5.240653 9.881720 -40.427734 -0.192493 -0.434609 14.438574 26.250580 15.219518 1.301079 -8.886789 9.164861 4.075468 -8.414250 -17.094839 14.988010 -12.308553 -17.893410 -10.289900 -19.533600 6.217660 -11.117106 -10.005515 -5.939189 1.975947 -3.570157 -6.428790 5.714611 -17.569624 8.502396 -0.351563 0.000000 0.000000 -21.667566 1.148763 4.187686 -36.830936 -25.705244 18.217213 -0.736324 5.381598 4.224761 16.871576 3.912536 -1.093365 -34.376259 -25.747744 16.095236 -8.641175 4.276957 2.914167 -5.330077 3.798435 1.717381 6.937449 -4.206490 -21.483410 23.022398 -0.481597 -0.190353 23.495262 -9.327928 -19.631670 -0.000457 0.016384 -0.175016 -16.487537 -0.706292 7.313511 8.613156 -0.030496 0.032875 14.504672 18.904661 -10.990263 0.000000 0.000000 0.000000 
-47.839336 42.130383 58.467697 0.527383 0.703099 -46.749001 1.406420 -0.878646 4.018710 11.456000 4.135010 5.417980 0.000000 0.000000 0.000000 -24.815901 -9.752490 -0.624187 0.000000 0.000000 0.000000 0.000000 0.000000 0.000000 -6.652630 -22.396000 -0.543009 90.605255 -2.421948 10.277248 45.525288 -0.106739 -0.389228 -5.530436 -15.407857 1.781877 -2.196803 8.088476 9.363434 -5.993100 8.200828 -17.027071 -2.735254 11.533928 -17.444088 31.970200 18.932699 5.881620 -8.737162 9.822696 -5.878980 21.234838 3.416048 -6.315852 34.696049 23.527008 15.577812 8.244953 -1.502700 0.722675 -12.838020 -2.429856 5.230082 35.942455 25.760197 18.217253 -0.156757 -5.465929 4.370303 -17.719269 -3.972915 -0.926374 34.889076 26.244684 16.543980 7.752715 -4.393883 3.036627 4.441531 -3.901016 1.855662 3.092920 14.975600 0.237781 -92.742134 1.556001 9.858313 -40.955059 -0.192681 -0.440877 14.998734 24.704113 14.245080 1.301079 -8.886789 9.164861 4.075468 -8.414250 -17.094839 14.988010 -12.308553 -17.893410 -10.289900 -19.533600 6.217660 -11.117106 -10.005515 -5.939189 1.975947 -3.570157 -6.428790 5.714611 -17.569624 8.502396 -0.351563 0.000000 0.000000 -21.667566 1.148763 4.187686 -36.830936 -25.705244 18.217213 -0.736324 5.381598 4.224761 16.871576 3.912536 -1.093365 -34.376259 -25.747744 16.095236 -8.641175 4.276957 2.914167 -5.330077 3.798435 1.717381 2.001521 -7.433853 -21.953875 33.044273 -0.416626 -0.259223 25.238077 -15.863058 -14.420444 -0.000457 0.016384 -0.175016 -14.984489 -1.935333 8.025657 11.074057 -0.039517 0.041443 12.397841 17.439089 -11.227160 0.000000 0.000000 0.000000 
-48.527977 42.189278 59.177258 -0.878944 0.527282 -45.711201 2.637510 -1.404770 2.919290 11.622800 3.443720 4.935880 0.000000 0.000000 0.000000 -25.349300 -9.710900 0.168102 0.000000 0.000000 0.000000 0.000000 0.000000 0.000000 -6.097890 -22.767300 -0.200891 90.685364 -3.156449 11.234202 45.525433 0.073673 -0.453615 -7.069386 -16.902306 1.392038 -2.196803 8.088476 9.363434 -5.993100 8.200828 -17.027071 -2.735254 11.533928 -17.444088 31.970200 18.932699 5.881620 -8.737162 9.822696 -5.878980 21.234838 3.416048 -6.315852 34.696049 23.527008 15.577812 8.244953 -1.502700 0.722675 -12.838020 -2.429856 5.230082 35.942455 25.760197 18.217253 -0.156757 -5.465929 4.370303 -17.719269 -3.972915 -0.926374 34.889076 26.244684 16.543980 7.752715 -4.393883 3.036627 4.441531 -3.901016 1.855662 2.906180 14.632300 0.476481 -91.897621 -1.946923 9.727067 -41.657600 -0.319055 -0.489141 15.309041 23.460121 12.925079 1.301079 -8.886789 9.164861 4.075468 -8.414250 -17.094839 14.988010 -12.308553 -17.893410 -10.289900 -19.533600 6.217660 -11.117106 -10.005515 -5.939189 1.975947 -3.570157 -6.428790 5.714611 -17.569624 8.502396 -0.351563 0.000000 0.000000 -21.667566 1.148763 4.187686 -36.830936 -25.705244 18.217213 -0.736324 5.381598 4.224761 16.871576 3.912536 -1.093365 -34.376259 -25.747744 16.095236 -8.641175 4.276957 2.914167 -5.330077 3.798435 1.717381 -3.691062 -11.054263 -22.063684 43.240677 -0.351421 -0.321369 27.491356 -22.793962 -5.362908 -0.000457 0.016384 -0.175016 -13.678966 -2.460233 9.147609 13.710443 -0.175622 -0.140038 10.223893 14.983555 -11.799860 0.000000 0.000000 0.000000 
-49.243256 42.243328 59.972084 -1.933630 0.351362 -44.484501 4.045700 -2.104130 1.954230 11.791200 2.753260 4.625230 0.000000 0.000000 0.000000 -25.856800 -9.352140 0.633109 0.000000 0.000000 0.000000 0.000000 0.000000 0.000000 -5.547560 -23.324699 0.307328 90.799644 -3.830343 12.368445 45.525291 -0.104454 -0.390044 -10.369502 -19.679974 1.920845 -2.196803 8.088476 9.363434 -5.993100 8.200828 -17.027071 -2.735254 11.533928 -17.444088 31.970200 18.932699 5.881620 -8.737162 9.822696 -5.878980 21.234838 3.416048 -6.315852 34.696049 23.527008 15.577812 8.244953 -1.502700 0.722675 -12.838020 -2.429856 5.230082 35.942455 25.760197 18.217253 -0.156757 -5.465929 4.370303 -17.719269 -3.972915 -0.926374 34.889076 26.244684 16.543980 7.752715 -4.393883 3.036627 4.441531 -3.901016 1.855662 2.540830 14.453300 0.573114 -90.954483 -5.475626 9.920697 -42.537178 -0.142736 -0.443405 15.504692 22.253597 11.380412 1.301079 -8.886789 9.164861 4.075468 -8.414250 -17.094839 14.988010 -12.308553 -17.893410 -10.289900 -19.533600 6.217660 -11.117106 -10.005515 -5.939189 1.975947 -3.570157 -6.428790 5.714611 -17.569624 8.502396 -0.351563 0.000000 0.000000 -21.667566 1.148763 4.187686 -36.830936 -25.705244 18.217213 -0.736324 5.381598 4.224761 16.871576 3.912536 -1.093365 -34.376259 -25.747744 16.095236 -8.641175 4.276957 2.914167 -5.330077 3.798435 1.717381 -8.782431 -14.026424 -22.284605 52.557419 0.000596 -0.404252 30.035736 -28.255363 3.640785 -0.000457 0.016384 -0.175016 -11.891966 -3.157697 8.691936 15.105709 -0.572794 0.164075 8.252507 14.068060 -11.692019 0.000000 0.000000 0.000000 
